<?xml version="1.0" standalone="no"?>
<!DOCTYPE svg PUBLIC "-//W3C//DTD SVG 20010904//EN"
 "http://www.w3.org/TR/2001/REC-SVG-20010904/DTD/svg10.dtd">
<svg version="1.0" xmlns="http://www.w3.org/2000/svg"
 width="700.000000pt" height="700.000000pt" viewBox="0 0 700.000000 700.000000"
 preserveAspectRatio="xMidYMid meet">
<metadata>
Created by potrace 1.14, written by Peter Selinger 2001-2017
</metadata>
<g transform="translate(0.000000,700.000000) scale(0.100000,-0.100000)"
fill="#000000" stroke="none">
<path d="M761 6220 c-3 -3 -6 -139 -6 -303 l0 -297 60 -1 c33 0 626 -1 1318
-1 956 0 1257 -3 1257 -12 0 -6 -39 -90 -86 -186 -48 -96 -119 -242 -159 -325
-40 -82 -143 -294 -230 -470 -87 -176 -211 -430 -277 -565 -66 -135 -177 -360
-245 -500 -69 -140 -181 -367 -248 -505 -67 -137 -182 -371 -255 -520 -73
-148 -183 -373 -245 -500 -62 -126 -180 -367 -262 -535 -83 -168 -190 -387
-240 -487 l-89 -183 378 0 378 0 34 73 c18 39 63 133 99 207 35 74 85 178 110
230 25 52 82 172 127 265 45 94 95 197 110 230 27 59 75 159 220 460 40 83 89
186 110 230 21 44 68 143 105 220 37 77 87 183 112 235 79 165 139 291 208
435 97 203 170 355 230 480 29 61 81 169 115 240 34 72 81 171 105 220 23 50
73 153 110 230 37 77 87 181 110 230 24 50 75 158 115 240 40 83 87 182 105
220 18 39 64 135 102 215 134 278 120 224 121 480 1 124 -1 232 -3 240 -4 13
-201 15 -1696 15 -930 0 -1694 -2 -1698 -5z"/>
<path d="M4545 3429 c-102 -14 -141 -21 -181 -29 -54 -12 -206 -60 -219 -69
-5 -4 -32 -16 -59 -26 -139 -51 -351 -198 -485 -336 -213 -219 -372 -525 -416
-799 -3 -19 -9 -60 -14 -90 -9 -56 -8 -361 2 -415 61 -339 169 -567 387 -819
119 -137 334 -295 510 -374 258 -115 538 -158 823 -128 51 6 81 11 185 32 70
14 249 83 339 129 291 152 505 362 659 645 67 123 142 329 159 440 3 19 7 46
10 60 16 90 23 306 11 385 -3 22 -8 60 -10 85 -3 25 -16 88 -30 140 -98 384
-321 700 -647 918 -174 117 -415 212 -599 238 -19 2 -46 7 -60 10 -38 9 -308
12 -365 3z m275 -593 c91 -12 106 -15 175 -37 294 -91 533 -328 629 -624 66
-205 54 -451 -32 -662 -53 -131 -193 -312 -292 -380 -14 -9 -27 -19 -30 -23
-12 -15 -112 -72 -171 -99 -117 -53 -219 -74 -370 -77 -136 -3 -199 5 -312 41
-230 74 -431 242 -546 457 -58 106 -81 175 -107 308 -9 52 -12 230 -3 270 4
19 10 52 13 72 16 105 92 272 171 376 162 212 405 352 658 378 34 4 63 7 64 8
4 3 106 -2 153 -8z"/>
</g>
</svg>
